<svg width="41" height="41" viewBox="0 0 41 41" fill="none" xmlns="http://www.w3.org/2000/svg">
<circle cx="20.5" cy="20.5" r="19.5" transform="rotate(90 20.5 20.5)" fill="white" stroke="#2B2D33" stroke-width="2"/>
<path d="M19.6711 12.3841C19.7795 12.2624 19.9085 12.1658 20.0506 12.0999C20.1927 12.0339 20.3451 12 20.499 12C20.6529 12 20.8053 12.0339 20.9474 12.0999C21.0895 12.1658 21.2185 12.2624 21.3269 12.3841L30.6551 22.772C30.7644 22.8928 30.8511 23.0364 30.9103 23.1946C30.9695 23.3528 31 23.5226 31 23.694C31 23.8654 30.9695 24.0351 30.9103 24.1934C30.8511 24.3516 30.7644 24.4952 30.6551 24.6159C30.5467 24.7376 30.4177 24.8342 30.2756 24.9001C30.1335 24.9661 29.9811 25 29.8272 25C29.6733 25 29.5209 24.9661 29.3788 24.9001C29.2367 24.8342 29.1077 24.7376 28.9993 24.6159L20.499 15.1369L11.9987 24.6159C11.7791 24.8604 11.4813 24.9978 11.1708 24.9978C10.8603 24.9978 10.5625 24.8604 10.3429 24.6159C10.1234 24.3714 10 24.0398 10 23.694C10 23.3482 10.1234 23.0166 10.3429 22.772L19.6711 12.3841Z" fill="#2B2D33"/>
</svg>
