<svg width="37" height="37" viewBox="0 0 37 37" fill="none" xmlns="http://www.w3.org/2000/svg">
<circle cx="18.5" cy="18.5" r="18.5" fill="#2055E5"/>
<path d="M10.3841 19.7894C10.2624 19.6862 10.1658 19.5633 10.0999 19.428C10.0339 19.2927 10 19.1475 10 19.0009C10 18.8543 10.0339 18.7092 10.0999 18.5739C10.1658 18.4385 10.2624 18.3157 10.3841 18.2125L20.772 9.32849C20.8928 9.2244 21.0364 9.14179 21.1946 9.08541C21.3528 9.02903 21.5226 9 21.694 9C21.8654 9 22.0351 9.02903 22.1933 9.08541C22.3516 9.14179 22.4952 9.2244 22.6159 9.32849C22.7376 9.43172 22.8342 9.55455 22.9001 9.68987C22.9661 9.8252 23 9.97034 23 10.1169C23 10.2635 22.9661 10.4087 22.9001 10.544C22.8342 10.6793 22.7376 10.8022 22.6159 10.9054L13.1369 19.0009L22.6159 27.0965C22.8604 27.3056 22.9978 27.5892 22.9978 27.885C22.9978 28.1807 22.8604 28.4643 22.6159 28.6734C22.3714 28.8825 22.0398 29 21.694 29C21.3482 29 21.0166 28.8825 20.772 28.6734L10.3841 19.7894Z" fill="white"/>
</svg>
